<svg id="Layer_1" data-name="Layer 1" xmlns="http://www.w3.org/2000/svg" xmlns:xlink="http://www.w3.org/1999/xlink" viewBox="0 0 360 144"><defs><style>.cls-1{fill:none;}.cls-2{clip-path:url(#clip-path);}.cls-3,.cls-4,.cls-5{fill:#8d545a;}.cls-4{font-size:26.25px;font-family:Como-Medium, Como;font-weight:500;}.cls-5{font-size:14.87px;font-family:Como-Regular, Como;}.cls-6{letter-spacing:-0.01em;}.cls-7{letter-spacing:-0.04em;}.cls-8{letter-spacing:-0.03em;}</style><clipPath id="clip-path"><rect class="cls-1" x="-4.38" y="11.77" width="120.46" height="120.46"/></clipPath></defs><g class="cls-2"><g class="cls-2"><path class="cls-3" d="M43.52,53.44a.83.83,0,0,0,.07-.53V30.35c0-1.21.5-1.71,1.7-1.71,4.87,0,9.74,0,14.6,0A37.58,37.58,0,0,1,80.8,35.26a36.86,36.86,0,0,1,6.26,5.37A37.82,37.82,0,0,1,64.13,104a36.65,36.65,0,0,1-5.24.26c-1.33,0-2.67,0-4,0-3.09.05-6.17.09-9.26.07H45.3c-1.19,0-1.71-.54-1.71-1.74V58.14c0-.17,0-.33,0-.49s.08-.46-.06-.52-.35.17-.51.31q-3,2.73-6,5.47c-.23.21-.34.1-.47-.09L34,59.27l-3.57-5a2.39,2.39,0,0,0-.23-.28,1.19,1.19,0,0,0-.06.58v41.2A5.48,5.48,0,0,1,29,99.28a5.35,5.35,0,0,1-3.57,2.1A5.53,5.53,0,0,1,19.1,97,6,6,0,0,1,19,95.77V37.07a5.55,5.55,0,0,1,4.92-5.67,5.46,5.46,0,0,1,5.44,2.37c1.24,1.75,2.5,3.47,3.75,5.21l5.82,8.12Q40.94,50,43,52.82c.15.21.23.48.49.62m25.37,46.68A35,35,0,0,0,94.27,62.61c-1.76-16.53-14.52-27.48-26.11-30,0,.06.1.08.15.12a5.69,5.69,0,0,1,2.33,4.89c-.06,18.19.06,36.38-.08,54.57,0,1.37,0,2.75,0,4.13a4.82,4.82,0,0,1-.74,2.59,11.14,11.14,0,0,1-.93,1.24M59.48,54.23l-.1,0-.51.71c-1.15,1.6-2.32,3.2-3.47,4.81l-2.57,3.58c-.31.42-.33.41-.68,0q-2.7-2.88-5.38-5.78c-.11-.11-.21-.35-.39-.27s-.06.29-.06.45v21.4q0,10.92,0,21.84c0,.33,0,.59.47.58,4.86,0,9.73.1,14.59-.09a5.12,5.12,0,0,0,1.51-.19,8.48,8.48,0,0,1-1.5-1,5.67,5.67,0,0,1-1.9-4.47V54.23Zm-13.16-1,.09,0,.15-.18,3.16-4.4q3-4.15,6-8.33c1.41-2,2.84-3.91,4.23-5.9a6.22,6.22,0,0,1,3.55-2.71l.1,0a17.16,17.16,0,0,0-3.24-.31c-4.48,0-8.95,0-13.43,0-.62,0-.62,0-.62.62V53.22Z"/></g></g><text class="cls-4" transform="translate(113.85 68.34)">mychelle design, llc</text><text class="cls-5" transform="translate(113.85 85.67)">pho<tspan class="cls-6" x="26.47" y="0">t</tspan><tspan x="32.35" y="0">og</tspan><tspan class="cls-7" x="50.27" y="0">r</tspan><tspan x="54.85" y="0">aphy | design | mar</tspan><tspan class="cls-8" x="186.32" y="0">k</tspan><tspan x="193.75" y="0">eting</tspan></text></svg>